PathFileType	4	(X/Y/Z)	Patient4_TMGait_0pt4_03_right_07.trc.trc
DataRate	CameraRate	NumFrames	NumMarkers	Units	OrigDataRate	OrigDataStartFrame	OrigNumFrames
76.923076923077	76.923076923077	4	33	mm	76.923076923077	106	       141
Frame#	Time	Sacral			L.Shoulder			Chest			R.Shoulder			Neck			R.ASIS			L.ASIS			R.Thigh.Superior			R.Thigh.Lateral			R.Thigh.Inferior			R.Patella			L.Thigh.Superior			L.Thigh.Lateral			L.Thigh.Inferior			L.Patella			L.Shank.Superior			L.Shank.Lateral			L.Shank.Inferior			R.Shank.Superior			R.Shank.Lateral			R.Shank.Inferior			R.Heel			R.Midfoot.Superior			R.Midfoot.Lateral			R.Toe			L.Heel			L.Midfoot.Lateral			L.Midfoot.Superior			L.Toe			L.Elbow			L.Wrist			R.Elbow			R.Wrist			
		X1	Y1	Z1	X2	Y2	Z2	X3	Y3	Z3	X4	Y4	Z4	X5	Y5	Z5	X6	Y6	Z6	X7	Y7	Z7	X8	Y8	Z8	X9	Y9	Z9	X10	Y10	Z10	X11	Y11	Z11	X12	Y12	Z12	X13	Y13	Z13	X14	Y14	Z14	X15	Y15	Z15	X16	Y16	Z16	X17	Y17	Z17	X18	Y18	Z18	X19	Y19	Z19	X20	Y20	Z20	X21	Y21	Z21	X22	Y22	Z22	X23	Y23	Z23	X24	Y24	Z24	X25	Y25	Z25	X26	Y26	Z26	X27	Y27	Z27	X28	Y28	Z28	X29	Y29	Z29	X30	Y30	Z30	X31	Y31	Z31	X32	Y32	Z32	X33	Y33	Z33	

106	9.475000000000	827.251280560525	1009.714440979804	440.495816533604	1013.698293694906	1426.694162214413	227.131841328023	1110.362759878712	1367.570352345735	395.435945951163	1023.270943983060	1452.605145543025	562.251564830865	1007.534096798196	1499.541581484979	377.351765533928	1058.607302986411	955.187016300150	557.367086997175	1040.951404078972	964.607308149267	282.836298889734	1142.062350807988	785.011391708151	534.624318383709	1106.745337575497	667.489159175692	619.587683762247	1193.265778695045	625.459436159143	539.507060974775	1222.426712486586	528.883669281969	567.150401536157	1082.198241089916	750.506722989349	312.328701064300	987.811453580340	637.105365568896	254.916931277306	1072.307396820512	557.292435568473	314.171330242720	1069.838914582676	488.069420349717	324.257377369299	1040.186470034635	416.637105590444	319.321963028429	943.681642129289	305.203860254612	272.364809474118	993.571264615292	193.756235619694	344.944117536310	1176.375698412543	442.533167069983	584.001453135495	1084.540961022849	363.313466932495	654.598776325485	1115.270021269527	254.139567220827	612.456003152260	960.103554323890	112.815446244851	598.012565777333	1137.386321183103	129.071789332939	633.096313655858	1039.374701984202	86.793983894233	671.895939244353	1243.364356496535	56.696324753717	664.716833386196	860.208563823479	39.621255812379	391.175283585937	935.954097658177	35.555385742967	311.995881083997	1019.141695918437	96.596375051403	340.113261608748	1148.046037695316	42.917610479676	315.305986211967	1036.265662141465	1078.433818232047	103.915596799416	1185.350877705959	862.622124456164	88.062192611273	943.295471953877	1128.813058610969	715.271413566009	982.170057570799	873.370046284952	755.107955355381	
107	9.488000000000	826.579562864460	1009.664051495804	440.096576316079	1014.850917892231	1426.196323334971	227.056897409160	1110.237500755556	1367.192654887696	396.104148639273	1022.195985978739	1452.728292132884	562.184748245866	1008.043946409197	1499.337451826604	377.073875581599	1057.427122224771	955.031996319850	558.195281708715	1041.149762337637	964.791506675804	283.371993367005	1140.173668295524	784.540911901237	535.641619583008	1104.912453100371	667.630465587078	621.144351620081	1190.746193020752	625.048264984255	540.415704769347	1221.432632638029	531.024270450758	567.950703746665	1080.664359811859	749.967541022075	313.121219421705	985.463805239477	637.078831503130	255.045208932678	1069.150868617776	556.754160349321	314.476204768299	1066.135503208436	487.585061957646	324.563205419521	1036.307685887759	416.240365768924	319.533387731815	939.466041863517	305.151592882841	272.461694356793	988.877455044359	193.518311209676	345.095061243543	1179.945026098049	444.263237667469	585.664314221938	1093.767616580501	359.939209212501	657.344862566291	1130.881231967469	252.548280244997	615.043267312281	984.765101737902	102.315107286452	601.412869676198	1161.037041470692	128.354778041544	636.552646824319	1065.460658779144	80.815826236024	675.218793236334	1270.588669502959	61.308767244788	667.589685420610	855.004189073232	39.611540531868	391.171625593543	930.727739054296	35.549716010517	312.007852904905	1013.951226630853	96.587663879698	340.130323768585	1142.831750777143	42.844113622224	315.298881540172	1040.928462038475	1078.813154833757	102.966740058580	1192.789063511700	864.824415190191	88.271207103783	934.966792716783	1131.945057355063	716.051226292393	968.077998978432	876.443428255424	759.931704204705	
108	9.501000000000	825.954444171962	1009.544827008336	439.889645194128	1015.896051184516	1425.577904909687	227.191787580866	1110.159606414492	1366.711690389722	396.891606985270	1021.336199453369	1452.754321050020	562.328722081323	1008.557162448356	1499.031759983935	377.009520380444	1056.293012970629	954.693891234816	559.132290772946	1041.438028514715	964.960665722314	283.986126347528	1138.004854231516	783.624637108928	536.787877123430	1102.621526764158	667.427874031586	622.868853203552	1187.825978808895	624.225964041507	541.552964635771	1219.902711120352	532.726956097361	568.845109786009	1079.244163818852	749.383592549028	313.998280527803	983.235891853258	636.987641301680	255.328725408413	1066.054370753732	556.165726878574	315.014641067458	1062.477801841945	487.068010569119	325.131871323329	1032.489342979533	415.802046792127	319.951241463625	935.370046269951	305.065300644423	272.638797603169	984.205463842246	193.239526920260	345.369140357220	1182.889921182561	445.835640093293	587.253245012902	1102.591920229480	356.813430513548	660.073812234984	1145.632670530638	251.540045242902	617.313032621244	1008.709098587024	93.048561642796	604.622951174924	1183.607707725679	128.729282131929	639.451680881797	1090.780522743156	76.008421408521	678.111126725882	1296.474091427543	67.094332709973	669.453081874159	849.796749390685	39.578566439329	391.180549832548	925.494058897881	35.543723324109	312.028401501374	1008.750945988467	96.572410911470	340.180616335916	1137.609732181093	42.773582791244	315.294801674796	1045.108584113057	1079.005187523134	102.357100644547	1199.654984858552	866.833283008388	88.795144586516	927.189343450122	1134.914668742145	716.719142917000	954.999222574439	879.469421340923	764.009869667239	
109	9.514000000000	825.388630648701	1009.361483649235	439.869907706649	1016.809333161274	1424.879387834008	227.540838155830	1110.115411436316	1366.159256491661	397.798387611246	1020.674579883637	1452.693757002996	562.694582729718	1009.055874633515	1498.650749051015	377.171259797112	1055.228540383233	954.214956661747	560.167879473156	1041.806708091314	965.100247684827	284.682157472008	1135.669750267912	782.382401576881	538.046085013772	1100.039272857201	666.947428394685	624.731530731934	1184.709929686063	623.118749339469	542.914097886304	1218.002790364771	534.031752210369	569.842802937618	1077.937474925870	748.760354921743	315.015720634706	981.152972312214	636.840714880536	255.779855822833	1063.016051887919	555.528079806529	315.828832695694	1058.852922880397	486.518904151520	325.991774384386	1028.717953283902	415.330104983418	320.592588728795	931.384935911155	304.953581216238	272.902607341535	979.541230832545	192.928051950834	345.769053251186	1185.264256000734	447.241824024248	588.737457898319	1110.869711956287	354.005475621711	662.693920322359	1159.242554029285	251.079011051808	619.198612946575	1031.351478386554	85.120476751658	607.541381898886	1204.598075751529	130.030402481271	641.636356474117	1114.766177604794	72.334261517122	680.454441364057	1320.497877818086	73.783030988976	670.179035003661	844.583027981999	39.526850458425	391.200663265750	920.252781343955	35.538422303433	312.056542756921	1003.540700112494	96.549846833499	340.265536587058	1132.378846797080	42.706865039316	315.295590598725	1048.800949839180	1079.021957949351	102.110345179157	1205.921965990727	868.646931326321	89.628937995910	919.999884049537	1137.678319479722	717.298730123584	942.967575534474	882.348979194105	767.404608736327	
